# xmcd
#
# Track frame offsets:
#	150
#	12322
#	25245
#	35682
#	49415
#	61552
#	78115
#	88785
#	100125
#	104805
#	122800
#	137772
#	150355
#
# Disc length: 2320 seconds
#
# Revision: 0
# Processed by: cddbd v1.4PL0 Copyright (c) Steve Scherf et al.
# Submitted via: EasyCDDAExtractor 4.5.0.1
#
DISCID=a2090e0d
DTITLE=Brent Holmes - Beary Christmoose
DYEAR=2003
DGENRE=Comedy
TTITLE0=Candy Cane House
TTITLE1=Jingle Bells
TTITLE2=We Wish You a Beary Fish Moose
TTITLE3=Oh, Christmoose Tree
TTITLE4=We Three Bears (Full of Oreos Are)
TTITLE5=The Legend of Sandy Paws
TTITLE6=The Christmoose Cookie Song
TTITLE7=A Christmoose Mouse
TTITLE8=They Came From A Far
TTITLE9=A Big Goofy Christmoose Eve
TTITLE10=I Wouldn't Sleep Through Christmoose for Nothin'
TTITLE11=Christmoose is Coming, Ready or Not
TTITLE12=The Real Meaning of Christmoose
EXTD=
EXTT0=
EXTT1=
EXTT2=
EXTT3=
EXTT4=
EXTT5=
EXTT6=
EXTT7=
EXTT8=
EXTT9=
EXTT10=
EXTT11=
EXTT12=
PLAYORDER=
